<svg id="Layer_1" data-name="Layer 1" xmlns="http://www.w3.org/2000/svg" xmlns:xlink="http://www.w3.org/1999/xlink" viewBox="0 0 240.5 168.35"><defs><style>.cls-1{fill-opacity:0.141;}.cls-1,.cls-10,.cls-11,.cls-12,.cls-13,.cls-14,.cls-2,.cls-3,.cls-4,.cls-5,.cls-6,.cls-7,.cls-8,.cls-9{fill-rule:evenodd;}.cls-2{fill-opacity:0.137;}.cls-3{fill:#01708a;}.cls-4{fill:#36bbce;}.cls-5{fill:#5fc0ce;}.cls-6{fill:#fffcb8;}.cls-7{fill:#fffa98;}.cls-8{fill:#005165;}.cls-10,.cls-11,.cls-12,.cls-13,.cls-14,.cls-9{fill:none;stroke-linecap:round;stroke-linejoin:round;}.cls-9{stroke:#01708a;}.cls-10{stroke:#36bbce;}.cls-11{stroke:#5fc0ce;}.cls-12{stroke:#fffcb8;}.cls-13{stroke:#fffa98;}.cls-14{stroke:#005165;}</style><symbol id="Symbol_2" data-name="Symbol 2" viewBox="0 0 155.775 93.55"><g id="Layer_3" data-name="Layer 3"><path class="cls-1" d="M33.15,1l.275-1,.05.225ZM33.5.275l.375,1.375L31.25,7.85Zm121.875,86.2a3.842,3.842,0,0,0,.4.075q-.123.257-.225.5Z"/><path class="cls-2" d="M3.3,92.4c.09.19.181.374.275.55l-.2.6a.977.977,0,0,1-.15-.35A4.245,4.245,0,0,1,3.3,92.4ZM.875,84.1Q.426,84.535,0,85l.725-1.675Q.794,83.712.875,84.1Z"/></g></symbol></defs><title>phpuk-logo-icon</title><path class="cls-3" d="M347.7,194.7l-25.75-77.75L395.2,135.7a348.48,348.48,0,0,0-24.15,25.65q-.6.649-1.1,1.3A193.638,193.638,0,0,0,347.7,194.7Zm-90.2,28.25,9.55,35.45a81.143,81.143,0,0,1-5.8-7.35q-.6-.851-1.6-2.1-1.549-2-4.2-5-4.1-4.7-10.7-11.9Zm-28.55-106,23,85.55-12.55,24q-4.249-4.3-9.45-9.1-8.3-7.6-19.05-16.45-3.7-3.049-7.7-6.25Z" transform="translate(-155.2 -116.45)"/><path class="cls-4" d="M321.95,116.95,347.7,194.7q-4,3.2-7.7,6.25-10.75,8.85-19.05,16.45-5.2,4.8-9.45,9.1l-12.55-24Zm-46.85.85V284.3h-.4l-7.65-25.9-9.55-35.45-5.55-20.45-23-85.55q19.5.8,38.5.85h7.65Zm8.75,140.6,9.55-35.45,12.75,9.1q-6.6,7.2-10.7,11.9-2.649,3-4.2,5-1,1.25-1.6,2.1A81.143,81.143,0,0,1,283.85,258.4Z" transform="translate(-155.2 -116.45)"/><path class="cls-5" d="M275.1,284.3V117.8h8.35q19-.05,38.5-.85l-23,85.55-5.55,20.45-9.55,35.45-8.3,25.9Z" transform="translate(-155.2 -116.45)"/><path class="cls-6" d="M306.15,232.05l-12.75-9.1,5.55-20.45,12.55,24a1.267,1.267,0,0,0-.3.3q-2.55,2.55-4.75,4.95l-.3.3.3-.3q2.2-2.4,4.75-4.95a1.267,1.267,0,0,1,.3-.3l3.45,18.45Z" transform="translate(-155.2 -116.45)"/><path class="cls-7" d="M239.4,226.5a1.267,1.267,0,0,1,.3.3q2.55,2.55,4.75,4.95l.3.3-.3-.3q-2.2-2.4-4.75-4.95a1.267,1.267,0,0,0-.3-.3l12.55-24,5.55,20.45-12.75,9.1-8.8,12.9Z" transform="translate(-155.2 -116.45)"/><path class="cls-8" d="M228.95,116.95,203.2,194.7a194.277,194.277,0,0,0-23.35-33.35l-1.8-2.1Q168.2,147.8,155.7,135.7Z" transform="translate(-155.2 -116.45)"/><path class="cls-9" d="M321.95,116.95,395.2,135.7a348.48,348.48,0,0,0-24.15,25.65q-.6.649-1.1,1.3A193.638,193.638,0,0,0,347.7,194.7m-80.65,63.7a81.143,81.143,0,0,1-5.8-7.35q-.6-.851-1.6-2.1-1.549-2-4.2-5-4.1-4.7-10.7-11.9m-5.35-5.55q-4.249-4.3-9.45-9.1-8.3-7.6-19.05-16.45-3.7-3.049-7.7-6.25m54.3,28.25,9.55,35.45m54.9-141.45L347.7,194.7" transform="translate(-155.2 -116.45)"/><path class="cls-10" d="M347.7,194.7q-4,3.2-7.7,6.25-10.75,8.85-19.05,16.45-5.2,4.8-9.45,9.1m-5.35,5.55q-6.6,7.2-10.7,11.9-2.649,3-4.2,5-1,1.25-1.6,2.1a81.143,81.143,0,0,1-5.8,7.35m-54.9-141.45q19.5.8,38.5.85h7.65m18.3,105.15-9.55,35.45m-31.9-55.9-23-85.55" transform="translate(-155.2 -116.45)"/><path class="cls-11" d="M275.1,117.8h8.35q19-.05,38.5-.85l-23,85.55M275.1,284.3V117.8" transform="translate(-155.2 -116.45)"/><path class="cls-12" d="M311.5,226.5l3.45,18.45-8.8-12.9.3-.3q2.2-2.4,4.75-4.95a1.267,1.267,0,0,1,.3-.3l-12.55-24-5.55,20.45,12.75,9.1" transform="translate(-155.2 -116.45)"/><path class="cls-13" d="M244.75,232.05l-8.8,12.9,3.45-18.45m5.35,5.55,12.75-9.1-5.55-20.45-12.55,24a1.267,1.267,0,0,1,.3.3q2.55,2.55,4.75,4.95Z" transform="translate(-155.2 -116.45)"/><path class="cls-14" d="M203.2,194.7a194.277,194.277,0,0,0-23.35-33.35l-1.8-2.1Q168.2,147.8,155.7,135.7l73.25-18.75Z" transform="translate(-155.2 -116.45)"/><use width="155.775" height="93.55" transform="translate(39.725 0.2)" xlink:href="#Symbol_2"/></svg>