<?xml version="1.0" standalone="no"?>
<!DOCTYPE svg PUBLIC "-//W3C//DTD SVG 20010904//EN"
 "http://www.w3.org/TR/2001/REC-SVG-20010904/DTD/svg10.dtd">
<svg version="1.0" xmlns="http://www.w3.org/2000/svg"
 width="964.000000pt" height="964.000000pt" viewBox="0 0 964.000000 964.000000"
 preserveAspectRatio="xMidYMid meet">
<metadata>
Created by potrace 1.11, written by Peter Selinger 2001-2013
</metadata>
<g transform="translate(0.000000,964.000000) scale(0.100000,-0.100000)"
fill="#000000" stroke="none">
<path d="M2590 8099 c-347 -89 -657 -169 -1240 -318 -1014 -260 -1335 -343
-1342 -347 -4 -3 -8 -10 -8 -15 0 -6 78 -88 173 -182 735 -728 1275 -1400
1652 -2053 l81 -141 224 -184 c426 -348 739 -621 1043 -912 108 -103 181 -166
185 -159 4 6 120 227 257 491 245 471 273 517 287 464 3 -10 53 -197 113 -415
59 -218 105 -403 103 -410 -3 -7 -121 -95 -261 -195 -141 -101 -258 -186 -261
-191 -2 -4 72 -93 166 -197 262 -291 358 -405 506 -598 74 -99 157 -201 184
-229 l48 -49 141 -477 c78 -262 144 -488 148 -501 4 -14 11 -26 17 -28 5 -1
25 50 46 115 38 123 63 200 201 632 l86 265 53 55 c29 30 113 134 185 230 136
180 281 351 526 619 l140 154 -26 23 c-15 13 -135 100 -267 195 -132 94 -240
172 -240 173 0 1 32 119 70 261 39 143 89 330 112 415 44 166 58 195 82 170 7
-8 125 -229 261 -490 136 -261 249 -477 251 -479 2 -2 52 42 111 98 404 381
763 695 1219 1063 l120 98 83 142 c373 640 856 1246 1578 1978 133 135 241
250 239 256 -3 9 -867 233 -2461 639 l-480 122 -135 -8 c-652 -38 -2988 -34
-3555 5 -64 4 -100 -3 -415 -85z"/>
</g>
</svg>
