<svg width="800" height="298" viewBox="0 0 800 298" fill="none" xmlns="http://www.w3.org/2000/svg">
<path d="M800 200.266C800 209.128 792.801 216.407 783.862 216.407C775.003 216.407 767.725 209.207 767.725 200.266C767.725 191.325 774.923 184.124 783.862 184.124C792.801 184.203 800 191.404 800 200.266Z" fill="#191946"/>
<path fill-rule="evenodd" clip-rule="evenodd" d="M201.404 134.671C201.404 161.653 223.554 184.124 250.846 184.124C278.137 184.124 300.287 161.653 300.287 134.671C300.287 107.373 278.137 85.2176 250.846 85.2176C223.554 85.2176 201.404 107.373 201.404 134.671ZM169.208 134.671C169.208 89.4113 205.992 53.0137 250.846 53.0137C296.094 53.0137 332.483 89.4904 332.483 134.671C332.483 179.614 296.015 216.328 250.846 216.328C205.913 216.407 169.208 179.614 169.208 134.671ZM0 135.064C0 89.8044 36.4679 53.3277 81.3211 53.3277C110.59 53.3277 137.566 68.9153 152.279 93.998C156.867 101.831 153.941 111.564 146.425 116.153C138.594 120.347 128.864 117.736 124.276 110.298C115.495 95.0266 99.1991 85.6107 81.3211 85.6107C54.3459 85.6107 31.8798 107.766 31.8798 135.064C31.8798 162.046 54.3459 184.517 81.3211 184.517C98.2498 184.517 113.834 176.051 122.931 161.729C127.835 154.212 137.882 152.313 145.397 156.823C152.912 161.729 154.811 171.778 149.985 179.295C135.034 202.716 109.325 216.721 81.3211 216.721C36.4679 216.721 0 179.928 0 135.064ZM384.219 136.332V136.016C384.219 108.639 406.368 86.5626 433.66 86.5626C460.951 86.5626 483.101 109.034 483.101 136.016C483.101 163.314 460.951 185.469 433.66 185.469C406.368 185.469 384.219 163.314 384.219 136.332ZM384.219 282.081V201.057C397.904 211.501 415.149 217.673 433.581 217.673C478.75 217.673 515.218 181.275 515.218 136.016C515.218 91.1519 478.829 54.3587 433.581 54.3587C388.728 54.3587 351.943 91.1519 351.943 136.016V136.332V282.081C351.943 290.785 359.142 297.985 368.239 297.985C377.02 297.985 384.219 290.864 384.219 282.081ZM533.571 200.424V69.3134C533.571 60.5305 540.691 53.4093 549.867 53.4093C558.648 53.4093 565.846 60.6097 565.846 69.3134V200.503C565.846 209.602 558.727 216.803 549.867 216.803C540.691 216.724 533.571 209.523 533.571 200.424ZM667.893 85.5342C695.264 85.5342 716.069 108.718 716.069 136.016C716.069 163.314 695.264 184.203 667.893 184.203C640.522 184.203 617.423 163.393 617.423 136.016C617.423 108.639 640.522 85.5342 667.893 85.5342ZM747.948 199.791V136.016C747.948 90.1234 713.775 53.6467 667.893 53.7259C622.012 53.7259 585.544 90.1234 585.544 136.016C585.544 181.909 622.012 216.091 667.893 216.091C686.483 216.091 702.067 211.501 716.069 199.791C716.069 209.286 725.166 216.091 731.653 216.091C741.145 216.091 747.948 209.207 747.948 199.791Z" fill="#FFA716"/>
<path d="M565.767 16.1415C565.767 25.0035 558.568 32.283 549.629 32.283C540.77 32.283 533.492 25.0826 533.492 16.1415C533.492 7.2795 540.69 0 549.629 0C558.568 0 565.767 7.20038 565.767 16.1415Z" fill="#191946"/>
</svg>
