<svg width="824" height="266" viewBox="0 0 824 266" fill="none" xmlns="http://www.w3.org/2000/svg">
<path d="M25.7114 82.9147C25.7114 98.8627 38.2261 105.068 52.4367 105.068C61.7394 105.068 75.9461 102.379 75.9461 90.1374C75.9461 77.2094 57.8487 75.028 40.0901 70.328C22.1581 65.6294 4.06073 58.7507 4.06073 36.2494C4.06073 11.7454 27.4021 2.78282e-05 49.2194 2.78282e-05C74.4234 2.78282e-05 97.5967 10.9147 97.5967 38.6014H71.8847C71.0407 24.1667 60.7261 20.4774 48.0407 20.4774C39.5834 20.4774 29.7727 23.9974 29.7727 34.072C29.7727 43.3054 35.5194 44.4774 65.7981 52.204C74.5914 54.3827 101.655 59.9227 101.655 87.1107C101.655 109.097 84.2341 125.547 51.4207 125.547C24.6967 125.547 -0.335269 112.459 0.00339766 82.9147H25.7114Z" fill="#000106"/>
<path d="M165.555 69.5579C163.357 57.3819 158.113 50.9539 146.443 50.9539C131.219 50.9539 126.821 62.7939 126.485 69.5579H165.555ZM126.485 84.7859C127.16 100.007 134.603 106.941 147.963 106.941C157.605 106.941 165.388 101.018 166.908 95.6045H188.051C181.283 116.243 166.908 125.033 147.12 125.033C119.552 125.033 102.467 106.091 102.467 79.0339C102.467 52.8099 120.565 32.8552 147.12 32.8552C176.887 32.8552 191.263 57.8899 189.573 84.7859H126.485Z" fill="#000106"/>
<path d="M191.807 35.2201H214.64V47.4067H215.145C221.235 37.5921 231.721 32.8547 241.871 32.8547C267.409 32.8547 273.836 47.2307 273.836 68.8787V122.664H249.82V73.2787C249.82 58.9027 245.592 51.8001 234.427 51.8001C221.405 51.8001 215.823 59.0707 215.823 76.8267V122.664H191.807V35.2201Z" fill="#000106"/>
<path d="M298.606 94.2519C298.777 104.74 307.571 108.967 317.041 108.967C323.966 108.967 332.767 106.263 332.767 97.8105C332.767 90.5292 322.789 87.9945 305.541 84.2732C291.673 81.2292 277.803 76.3292 277.803 60.9292C277.803 38.6065 297.083 32.8545 315.858 32.8545C334.969 32.8545 352.561 39.2799 354.417 60.7599H331.582C330.91 51.4639 323.803 48.9292 315.179 48.9292C309.773 48.9292 301.822 49.9452 301.822 57.0385C301.822 65.6665 315.349 66.8532 329.046 70.0679C343.083 73.2799 356.786 78.3545 356.786 94.5892C356.786 117.597 336.827 125.033 316.874 125.033C296.578 125.033 276.79 117.428 275.771 94.2519H298.606Z" fill="#000106"/>
<path d="M358.807 35.2238H382.82V122.665H358.807V35.2238ZM382.817 21.6918H358.803V1.89977H382.817V21.6918Z" fill="#000106"/>
<path d="M430.317 106.941C446.724 106.941 451.635 92.8994 451.635 79.0341C451.635 64.9927 446.724 50.9541 430.317 50.9541C414.081 50.9541 409.176 64.9927 409.176 79.0341C409.176 92.8994 414.081 106.941 430.317 106.941ZM430.317 32.8554C457.884 32.8554 475.644 51.1234 475.644 79.0341C475.644 106.767 457.884 125.033 430.317 125.033C402.916 125.033 385.16 106.767 385.16 79.0341C385.16 51.1234 402.916 32.8554 430.317 32.8554Z" fill="#000106"/>
<path d="M479.912 125.137V6.58667H504.041V104.999H564.049V125.137H479.912Z" fill="#82E83F"/>
<path d="M620.516 83.5579C617.578 84.5339 612.932 85.7032 606.574 87.0605C600.211 88.4205 596.054 89.7539 594.098 91.0552C591.104 93.1765 589.614 95.8659 589.614 99.1299C589.614 102.338 590.814 105.109 593.203 107.445C595.596 109.781 598.639 110.954 602.336 110.954C606.464 110.954 610.406 109.594 614.154 106.874C616.928 104.811 618.75 102.285 619.618 99.2912C620.214 97.3352 620.516 93.6125 620.516 88.1232V83.5579ZM589.859 64.9725L569.07 61.2179C571.408 52.8472 575.43 46.6525 581.136 42.6259C586.843 38.6032 595.323 36.5912 606.574 36.5912C616.79 36.5912 624.402 37.8059 629.399 40.2219C634.396 42.6405 637.924 45.7125 639.958 49.4405C641.999 53.1619 643.015 59.9939 643.015 69.9392L642.771 96.6859C642.771 104.297 643.139 109.903 643.876 113.521C644.604 117.133 645.976 121.01 647.991 125.138H625.324C624.726 123.615 623.994 121.359 623.122 118.37C622.746 117.014 622.472 116.117 622.303 115.678C618.398 119.485 614.208 122.338 609.751 124.239C605.296 126.142 600.535 127.093 595.484 127.093C586.575 127.093 579.544 124.675 574.408 119.839C569.276 115.002 566.703 108.887 566.703 101.494C566.703 96.6059 567.875 92.2405 570.218 88.4045C572.543 84.5765 575.819 81.6405 580.035 79.6032C584.25 77.5659 590.322 75.7805 598.263 74.2605C608.968 72.2525 616.382 70.3752 620.516 68.6392V66.3525C620.516 61.9499 619.424 58.8125 617.25 56.9339C615.076 55.0605 610.975 54.1245 604.942 54.1245C600.87 54.1245 597.687 54.9272 595.403 56.5312C593.12 58.1339 591.268 60.9472 589.859 64.9725" fill="#82E83F"/>
<path d="M679.019 79.9694C679.019 88.9361 680.432 95.5681 683.263 99.8614C687.224 105.948 692.503 108.995 699.076 108.995C704.133 108.995 708.436 106.836 712.001 102.511C715.559 98.1934 717.337 91.3854 717.337 82.0894C717.337 72.1961 715.548 65.0641 711.952 60.6894C708.371 56.3134 703.78 54.1241 698.181 54.1241C692.688 54.1241 688.127 56.2587 684.484 60.5254C680.839 64.7907 679.019 71.2734 679.019 79.9694ZM656.277 125.137V5.61339H679.184V48.6627C686.251 40.6147 694.623 36.5907 704.293 36.5907C714.84 36.5907 723.561 40.4147 730.463 48.0521C737.368 55.6881 740.824 66.6547 740.824 80.9454C740.824 95.7334 737.296 107.117 730.264 115.108C723.22 123.1 714.671 127.093 704.623 127.093C699.675 127.093 694.797 125.856 689.991 123.384C685.173 120.913 681.031 117.253 677.555 112.419V125.137H656.277Z" fill="#82E83F"/>
<path d="M742.826 100.436L765.821 96.9262C766.793 101.388 768.782 104.772 771.766 107.078C774.754 109.389 778.942 110.544 784.325 110.544C790.248 110.544 794.698 109.458 797.69 107.282C799.706 105.762 800.717 103.724 800.717 101.165C800.717 99.4275 800.164 97.9888 799.077 96.8462C797.942 95.7595 795.386 94.7528 791.418 93.8262C772.938 89.7515 761.22 86.0288 756.282 82.6608C749.428 77.9862 746.009 71.4902 746.009 63.1742C746.009 55.6768 748.964 49.3688 754.893 44.2542C760.816 39.1462 770 36.5915 782.452 36.5915C794.294 36.5915 803.102 38.5208 808.867 42.3822C814.622 46.2462 818.593 51.9488 820.77 59.5075L799.166 63.5035C798.237 60.1315 796.485 57.5515 793.904 55.7555C791.322 53.9635 787.636 53.0608 782.856 53.0608C776.824 53.0608 772.505 53.9102 769.897 55.5928C768.154 56.7902 767.289 58.3408 767.289 60.2395C767.289 61.8688 768.044 63.2555 769.568 64.3968C771.632 65.9208 778.769 68.0648 790.966 70.8395C803.174 73.6115 811.689 77.0075 816.526 81.0302C821.31 85.1048 823.702 90.7848 823.702 98.0728C823.702 106.005 820.382 112.826 813.752 118.53C807.128 124.24 797.314 127.093 784.325 127.093C772.532 127.093 763.197 124.701 756.32 119.917C749.44 115.132 744.948 108.641 742.826 100.436Z" fill="#82E83F"/>
<path d="M502.288 195.657C500.006 195.737 498.43 194.374 498.358 192.3C498.334 191.54 498.53 190.877 499.05 190.1C499.561 189.104 499.669 188.992 499.654 188.556C499.61 187.25 497.637 187.2 497.097 187.226C489.697 187.469 487.746 197.46 486.166 205.578L485.39 209.862C489.652 210.485 492.677 209.716 494.366 208.625C496.741 207.084 493.701 205.5 494.082 203.745C494.473 201.956 496.097 201.094 497.392 201.057C499.2 201.016 500.49 202.89 500.45 204.794C500.386 207.941 496.208 212.269 487.853 212.092C486.834 212.069 485.898 211.997 485.025 211.893L483.449 220.593C482.037 227.182 480.161 236.185 473.454 244.04C467.69 250.889 461.842 251.956 459.224 252.042C454.324 252.209 451.076 249.597 450.958 246.11C450.845 242.733 453.832 240.889 455.792 240.824C458.406 240.738 460.216 242.63 460.285 244.816C460.352 246.664 459.388 247.241 458.749 247.59C458.322 247.932 457.68 248.282 457.705 249.045C457.721 249.369 458.07 250.118 459.158 250.084C461.229 250.013 462.604 248.988 463.565 248.304C468.338 244.328 470.176 237.396 472.581 224.777L473.085 221.72C473.906 217.616 474.816 213.04 476.204 208.481C472.838 205.95 470.822 202.808 466.296 201.581C463.196 200.74 461.302 201.456 459.974 203.136C458.398 205.125 458.921 207.717 460.445 209.238L462.954 212.016C466.037 215.578 467.724 218.348 467.089 222.074C466.084 228.024 458.994 232.589 450.614 230.013C443.46 227.808 442.125 222.744 442.984 219.953C443.741 217.497 445.69 217.033 447.6 217.618C449.644 218.248 450.444 220.732 449.858 222.641C449.793 222.842 449.689 223.185 449.474 223.64C449.237 224.168 448.798 224.628 448.609 225.242C448.149 226.741 450.204 227.804 451.633 228.244C454.834 229.228 457.953 227.554 458.746 224.965C459.482 222.584 457.978 220.924 457.353 220.286L454.324 217.042C452.937 215.496 449.889 211.193 451.374 206.358C451.949 204.498 453.156 202.518 454.91 201.208C458.61 198.453 462.633 197.998 466.465 199.098C471.422 200.526 473.805 203.806 476.894 206.338C478.622 201.269 481.02 196.302 484.622 192.116C487.876 188.297 492.248 185.537 497.256 185.364C502.261 185.2 506.042 187.465 506.169 191.057C506.218 192.584 505.34 195.557 502.288 195.657ZM475.701 167.125C448.476 167.125 426.402 189.193 426.402 216.421C426.402 243.652 448.476 265.725 475.701 265.725C502.93 265.725 525.004 243.652 525.004 216.421C525.004 189.193 502.93 167.125 475.701 167.125" fill="#1A171A"/>
<path d="M725.318 236.136C733.379 236.136 736.97 228.801 736.97 222.125C736.97 215.017 732.647 208.125 725.318 208.125C717.911 208.125 713.586 215.017 713.586 222.125C713.586 228.801 717.179 236.136 725.318 236.136ZM725.318 202.552C736.682 202.552 744.305 210.764 744.305 222.125C744.305 232.832 736.535 241.703 725.318 241.703C714.026 241.703 706.254 232.832 706.254 222.125C706.254 210.764 713.878 202.552 725.318 202.552Z" fill="#333333"/>
<path d="M705.309 206.032V203.429H695.411V199.873C695.411 194.816 696.143 191 702.08 191C702.191 191 702.304 191.007 702.417 191.011C702.429 191.011 702.428 190.993 702.444 190.993C704.091 191.115 705.46 189.773 705.555 188.125L705.675 185.869C704.284 185.647 702.813 185.429 701.057 185.429C690.867 185.429 688.519 191.368 688.519 200.46V203.429H679.719V206.335C679.944 207.839 681.229 208.997 682.803 208.997C682.811 208.997 682.817 209.004 682.825 209.004H688.519V240.824H692.317C692.323 240.824 692.321 240.821 692.328 240.821C693.905 240.821 695.197 239.64 695.411 238.12V209.004H702.303C703.929 208.951 705.233 207.653 705.309 206.032Z" fill="#333333"/>
<path d="M613.507 203.429C613.494 203.429 613.487 203.438 613.472 203.438C612.019 203.438 610.611 204.436 609.999 205.786L600.514 234.373H600.368L591.091 205.8C590.484 204.444 589.072 203.438 587.611 203.438C587.595 203.438 587.59 203.429 587.575 203.429H582.77L595.455 238.332C595.898 239.578 596.776 241.486 596.776 242.292C596.776 243.024 594.722 251.528 588.562 251.528C588.411 251.528 588.255 251.512 588.104 251.501C586.534 251.414 585.346 252.513 585.084 254.201L584.896 256.588C586.143 256.808 587.392 257.102 589.592 257.102C598.683 257.102 601.394 248.816 603.964 241.632L617.746 203.429H613.507Z" fill="#333333"/>
<path d="M569.692 211.025C564 208.112 557.774 206.136 557.664 200.275C557.682 194.053 563.4 192.419 567.808 192.425C567.825 192.421 567.844 192.421 567.854 192.421C569.769 192.421 571.298 192.609 572.792 192.939C572.812 192.939 572.809 192.916 572.834 192.916C574.413 193.031 575.736 191.795 575.924 190.237L576.05 187.979C573.161 187.261 570.141 186.897 567.513 186.897C557.932 186.956 550.817 191.776 550.793 200.976C550.806 209.02 556.228 212.139 562.057 214.96C567.776 217.709 574.041 219.98 574.094 226.617C574.06 233.543 567.377 236.097 562.772 236.105C560.078 236.097 557.153 235.424 554.69 234.647C553.145 234.392 551.878 235.755 551.678 237.559L551.469 239.575C554.858 240.669 558.33 241.624 561.821 241.624H561.83H561.864C572.596 241.547 580.938 237.265 580.969 226.151C580.954 217.576 575.496 213.975 569.692 211.025Z" fill="#333333"/>
<path d="M673.934 240.823C673.94 240.823 673.94 240.821 673.944 240.821C675.432 240.821 676.672 239.781 676.986 238.382V216.851C676.986 208.71 673.545 202.551 664.006 202.551C660.634 202.551 654.993 204.461 652.426 209.81C650.445 204.75 646.121 202.551 641.794 202.551C636.296 202.551 632.554 204.529 629.918 208.857H629.77V206.53C629.746 204.821 628.362 203.438 626.648 203.438C626.633 203.438 626.628 203.429 626.616 203.429H623.318V240.823H627.05C627.056 240.823 627.056 240.821 627.058 240.821C628.788 240.821 630.184 239.419 630.184 237.695C630.184 237.649 630.2 237.63 630.21 237.601V221.982C630.21 215.018 632.994 208.126 640.033 208.126C645.605 208.126 646.71 213.914 646.71 218.535V240.823H650.494C650.496 240.823 650.496 240.821 650.505 240.821C652.133 240.821 653.452 239.569 653.598 237.975V221.982C653.598 215.018 656.385 208.126 663.424 208.126C668.994 208.126 670.096 213.914 670.096 218.535V240.823H673.934Z" fill="#333333"/>
<path d="M780.44 240.823C780.446 240.823 780.446 240.821 780.452 240.821C782.129 240.821 783.484 239.498 783.562 237.839V218.609C783.562 208.566 779.233 202.551 769.556 202.551C764.35 202.551 759.369 205.118 757.31 209.371H757.166V206.578C757.166 206.574 757.16 206.574 757.16 206.569C757.16 204.837 755.76 203.438 754.034 203.438C754.02 203.438 754.013 203.429 754.001 203.429H750.49V240.823H754.278C754.281 240.823 754.281 240.821 754.289 240.821C755.926 240.821 757.254 239.551 757.385 237.945V223.521C757.385 214.43 760.908 208.126 768.749 208.126C774.766 208.49 776.666 212.741 776.666 221.467V240.823H780.44Z" fill="#333333"/>
<path d="M817.542 203.429C817.529 203.429 817.523 203.438 817.505 203.438C816.053 203.438 814.643 204.436 814.034 205.786L804.554 234.373H804.399L795.125 205.8C794.517 204.444 793.105 203.438 791.642 203.438C791.631 203.438 791.622 203.429 791.613 203.429H786.805L799.489 238.332C799.931 239.578 800.814 241.486 800.814 242.292C800.814 243.024 798.755 251.528 792.597 251.528C792.445 251.528 792.293 251.512 792.139 251.501C790.57 251.414 789.385 252.513 789.119 254.201L788.933 256.588C790.179 256.808 791.43 257.102 793.625 257.102C802.717 257.102 805.433 248.816 807.999 241.632L821.783 203.429H817.542Z" fill="#333333"/>
<path d="M38.4261 202.257C37.7448 201.164 36.8955 200.204 35.8741 199.377C34.8528 198.552 33.6981 197.906 32.4101 197.445C31.1221 196.984 29.7728 196.752 28.3648 196.752C25.7875 196.752 23.5995 197.25 21.8021 198.246C20.0035 199.244 18.5448 200.58 17.4261 202.257C16.3088 203.934 15.4941 205.841 14.9835 207.981C14.4741 210.12 14.2181 212.332 14.2181 214.617C14.2181 216.804 14.4741 218.93 14.9835 220.996C15.4941 223.062 16.3088 224.922 17.4261 226.573C18.5448 228.228 20.0035 229.553 21.8021 230.548C23.5995 231.545 25.7875 232.042 28.3648 232.042C31.8635 232.042 34.5981 230.973 36.5661 228.834C38.5355 226.696 39.7381 223.876 40.1768 220.376H51.2595C50.9675 223.633 50.2128 226.573 48.9995 229.198C47.7835 231.824 46.1795 234.061 44.1861 235.906C42.1928 237.754 39.8595 239.165 37.1861 240.136C34.5128 241.108 31.5715 241.594 28.3648 241.594C24.3781 241.594 20.7928 240.901 17.6088 239.516C14.4248 238.13 11.7395 236.224 9.55282 233.792C7.36482 231.362 5.68748 228.506 4.52082 225.225C3.35415 221.944 2.77148 218.408 2.77148 214.617C2.77148 210.728 3.35415 207.118 4.52082 203.788C5.68748 200.458 7.36482 197.554 9.55282 195.074C11.7395 192.596 14.4248 190.652 17.6088 189.241C20.7928 187.833 24.3781 187.126 28.3648 187.126C31.2315 187.126 33.9421 187.541 36.4941 188.366C39.0461 189.193 41.3301 190.396 43.3475 191.976C45.3648 193.557 47.0301 195.512 48.3435 197.845C49.6555 200.178 50.4808 202.853 50.8221 205.866H39.7381C39.5435 204.554 39.1061 203.35 38.4261 202.257Z" fill="#323232"/>
<path d="M65.2587 202.731V209.731H65.404C65.8907 208.564 66.5467 207.482 67.3733 206.486C68.2 205.49 69.148 204.639 70.2173 203.934C71.2867 203.23 72.428 202.683 73.644 202.294C74.8587 201.906 76.1227 201.71 77.436 201.71C78.116 201.71 78.8693 201.832 79.696 202.075V211.7C79.2093 211.602 78.6253 211.518 77.9467 211.444C77.264 211.371 76.608 211.335 75.9773 211.335C74.0813 211.335 72.4773 211.651 71.1653 212.283C69.852 212.915 68.7947 213.778 67.9934 214.871C67.1907 215.966 66.62 217.242 66.28 218.7C65.9387 220.156 65.7693 221.738 65.7693 223.438V240.427H55.416V202.731H65.2587Z" fill="#323232"/>
<path d="M92.747 198.064L99.747 187.71H111.194L99.9656 198.064H92.747ZM104.012 211.554C102.774 210.194 100.888 209.512 98.3616 209.512C96.7083 209.512 95.335 209.792 94.2416 210.351C93.1483 210.91 92.2736 211.602 91.6163 212.428C90.9603 213.256 90.4976 214.131 90.231 215.054C89.9643 215.978 89.8056 216.804 89.7576 217.534H106.602C106.114 214.908 105.252 212.915 104.012 211.554M92.3096 231.386C93.8643 232.894 96.1016 233.647 99.0176 233.647C101.107 233.647 102.907 233.124 104.414 232.079C105.919 231.035 106.843 229.927 107.184 228.76H116.299C114.84 233.282 112.604 236.515 109.59 238.459C106.576 240.404 102.93 241.375 98.6536 241.375C95.6883 241.375 93.0136 240.902 90.6323 239.954C88.2496 239.006 86.2323 237.656 84.5803 235.907C82.927 234.156 81.6523 232.067 80.7523 229.636C79.8523 227.206 79.4043 224.532 79.4043 221.615C79.4043 218.798 79.8656 216.172 80.7896 213.742C81.7123 211.311 83.0243 209.208 84.727 207.434C86.427 205.659 88.4563 204.262 90.815 203.242C93.1723 202.22 95.7843 201.71 98.6536 201.71C101.862 201.71 104.656 202.33 107.039 203.57C109.419 204.81 111.376 206.475 112.908 208.564C114.439 210.654 115.544 213.036 116.226 215.71C116.906 218.383 117.148 221.178 116.955 224.094H89.7576C89.903 227.448 90.7536 229.88 92.3096 231.386" fill="#323232"/>
<path d="M142.365 222.891C141.709 223.11 141.003 223.293 140.25 223.438C139.495 223.585 138.706 223.706 137.881 223.803C137.054 223.902 136.227 224.022 135.401 224.167C134.623 224.313 133.858 224.509 133.105 224.751C132.35 224.995 131.694 225.323 131.135 225.735C130.577 226.149 130.126 226.673 129.786 227.303C129.446 227.935 129.277 228.738 129.277 229.709C129.277 230.634 129.446 231.411 129.786 232.042C130.126 232.675 130.589 233.173 131.171 233.537C131.755 233.902 132.435 234.157 133.214 234.303C133.991 234.449 134.793 234.522 135.619 234.522C137.662 234.522 139.241 234.182 140.359 233.501C141.477 232.821 142.303 232.006 142.838 231.058C143.373 230.11 143.701 229.151 143.823 228.178C143.943 227.206 144.005 226.427 144.005 225.845V221.979C143.567 222.37 143.021 222.673 142.365 222.891ZM121.913 208.273C122.981 206.669 124.342 205.381 125.995 204.409C127.647 203.437 129.506 202.745 131.573 202.33C133.639 201.918 135.717 201.71 137.807 201.71C139.703 201.71 141.623 201.845 143.567 202.111C145.511 202.379 147.286 202.902 148.89 203.679C150.494 204.457 151.807 205.538 152.827 206.923C153.849 208.309 154.359 210.143 154.359 212.429V232.042C154.359 233.745 154.455 235.373 154.65 236.927C154.845 238.483 155.185 239.65 155.671 240.427H145.171C144.977 239.845 144.818 239.25 144.698 238.642C144.575 238.034 144.49 237.415 144.443 236.782C142.79 238.483 140.845 239.675 138.61 240.355C136.373 241.034 134.089 241.375 131.755 241.375C129.957 241.375 128.279 241.157 126.725 240.719C125.169 240.282 123.809 239.602 122.642 238.678C121.475 237.754 120.563 236.587 119.907 235.178C119.251 233.769 118.922 232.091 118.922 230.146C118.922 228.009 119.298 226.246 120.053 224.861C120.806 223.475 121.778 222.37 122.97 221.542C124.159 220.717 125.522 220.097 127.053 219.683C128.583 219.271 130.126 218.943 131.682 218.699C133.238 218.457 134.769 218.262 136.277 218.117C137.782 217.971 139.119 217.753 140.286 217.461C141.453 217.169 142.375 216.743 143.058 216.185C143.737 215.626 144.053 214.81 144.005 213.742C144.005 212.623 143.823 211.737 143.458 211.081C143.094 210.423 142.607 209.914 142.001 209.549C141.391 209.185 140.687 208.941 139.886 208.819C139.083 208.698 138.219 208.638 137.297 208.638C135.255 208.638 133.651 209.075 132.485 209.95C131.318 210.825 130.637 212.283 130.443 214.325H120.089C120.235 211.894 120.842 209.877 121.913 208.273" fill="#323232"/>
<path d="M180.534 202.731V209.658H172.95V228.323C172.95 230.074 173.242 231.24 173.826 231.823C174.409 232.407 175.576 232.699 177.326 232.699C177.909 232.699 178.468 232.675 179.004 232.626C179.537 232.578 180.048 232.504 180.534 232.407V240.427C179.66 240.574 178.686 240.67 177.617 240.719C176.548 240.767 175.504 240.792 174.482 240.792C172.878 240.792 171.358 240.683 169.925 240.464C168.49 240.246 167.228 239.82 166.134 239.188C165.04 238.556 164.176 237.656 163.545 236.49C162.913 235.323 162.597 233.792 162.597 231.896V209.658H156.326V202.731H162.597V191.428H172.95V202.731H180.534Z" fill="#323232"/>
<path d="M205.727 211.554C204.487 210.193 202.603 209.513 200.076 209.513C198.423 209.513 197.049 209.793 195.956 210.351C194.863 210.91 193.987 211.602 193.331 212.429C192.675 213.255 192.212 214.131 191.945 215.054C191.677 215.977 191.52 216.805 191.472 217.533H208.315C207.828 214.909 206.967 212.915 205.727 211.554ZM194.024 231.386C195.579 232.894 197.815 233.646 200.732 233.646C202.821 233.646 204.62 233.125 206.128 232.079C207.633 231.034 208.557 229.927 208.899 228.761H218.012C216.555 233.282 214.317 236.515 211.304 238.459C208.289 240.405 204.644 241.375 200.367 241.375C197.401 241.375 194.728 240.902 192.347 239.954C189.964 239.006 187.947 237.657 186.295 235.907C184.641 234.157 183.365 232.067 182.467 229.637C181.567 227.206 181.117 224.531 181.117 221.615C181.117 218.798 181.58 216.173 182.504 213.742C183.425 211.31 184.739 209.209 186.441 207.434C188.141 205.659 190.171 204.262 192.529 203.242C194.887 202.221 197.499 201.71 200.367 201.71C203.576 201.71 206.369 202.33 208.753 203.57C211.133 204.809 213.091 206.474 214.621 208.565C216.153 210.654 217.259 213.037 217.94 215.71C218.62 218.383 218.863 221.178 218.669 224.094H191.472C191.617 227.449 192.468 229.881 194.024 231.386" fill="#323232"/>
<path d="M247.76 240.428V235.177H247.542C246.23 237.365 244.527 238.946 242.438 239.917C240.347 240.889 238.208 241.376 236.02 241.376C233.25 241.376 230.978 241.012 229.203 240.282C227.428 239.553 226.032 238.52 225.011 237.182C223.99 235.846 223.272 234.218 222.86 232.297C222.447 230.378 222.24 228.25 222.24 225.917V202.732H232.594V224.021C232.594 227.133 233.079 229.454 234.052 230.985C235.024 232.516 236.75 233.282 239.23 233.282C242.047 233.282 244.09 232.444 245.354 230.766C246.618 229.089 247.25 226.332 247.25 222.49V202.732H257.603V240.428H247.76Z" fill="#323232"/>
<path d="M272.768 202.731V209.731H272.914C273.4 208.564 274.056 207.482 274.883 206.486C275.71 205.49 276.658 204.639 277.727 203.934C278.796 203.23 279.938 202.683 281.154 202.294C282.368 201.906 283.632 201.71 284.946 201.71C285.626 201.71 286.379 201.832 287.206 202.075V211.7C286.719 211.602 286.135 211.518 285.456 211.444C284.774 211.371 284.118 211.335 283.487 211.335C281.591 211.335 279.987 211.651 278.675 212.283C277.362 212.915 276.304 213.778 275.503 214.871C274.7 215.966 274.13 217.242 273.79 218.7C273.448 220.156 273.279 221.738 273.279 223.438V240.427H262.926V202.731H272.768Z" fill="#323232"/>
<path d="M332.776 216.986C332.484 215.553 331.986 214.289 331.282 213.194C330.576 212.101 329.664 211.214 328.547 210.533C327.428 209.852 326.019 209.513 324.318 209.513C322.616 209.513 321.183 209.852 320.016 210.533C318.85 211.214 317.914 212.113 317.208 213.232C316.503 214.349 315.994 215.625 315.678 217.06C315.36 218.493 315.203 219.988 315.203 221.542C315.203 223.001 315.374 224.458 315.714 225.917C316.054 227.376 316.6 228.678 317.355 229.818C318.108 230.961 319.055 231.885 320.198 232.589C321.34 233.294 322.714 233.646 324.318 233.646C326.019 233.646 327.442 233.306 328.583 232.625C329.724 231.946 330.636 231.034 331.318 229.892C331.998 228.75 332.484 227.449 332.776 225.99C333.068 224.532 333.214 223.026 333.214 221.469C333.214 219.914 333.068 218.42 332.776 216.986ZM333.214 235.616C331.998 237.657 330.407 239.128 328.438 240.026C326.47 240.925 324.246 241.376 321.766 241.376C318.946 241.376 316.467 240.829 314.328 239.736C312.19 238.641 310.428 237.16 309.043 235.288C307.658 233.416 306.611 231.265 305.907 228.834C305.202 226.404 304.85 223.876 304.85 221.25C304.85 218.725 305.202 216.282 305.907 213.924C306.611 211.566 307.658 209.488 309.043 207.689C310.428 205.892 312.166 204.445 314.255 203.35C316.346 202.257 318.776 201.71 321.547 201.71C323.782 201.71 325.91 202.184 327.927 203.132C329.943 204.08 331.536 205.477 332.703 207.325H332.85V188.366H343.203V240.428H333.36V235.616H333.214Z" fill="#323232"/>
<path d="M371.238 211.554C369.998 210.193 368.114 209.513 365.588 209.513C363.934 209.513 362.561 209.793 361.468 210.351C360.374 210.91 359.498 211.602 358.842 212.429C358.186 213.255 357.724 214.131 357.457 215.054C357.189 215.977 357.032 216.805 356.984 217.533H373.826C373.34 214.909 372.478 212.915 371.238 211.554ZM359.536 231.386C361.09 232.894 363.326 233.646 366.244 233.646C368.333 233.646 370.132 233.125 371.64 232.079C373.145 231.034 374.069 229.927 374.41 228.761H383.524C382.066 233.282 379.829 236.515 376.816 238.459C373.801 240.405 370.156 241.375 365.878 241.375C362.913 241.375 360.24 240.902 357.858 239.954C355.476 239.006 353.458 237.657 351.806 235.907C350.153 234.157 348.877 232.067 347.978 229.637C347.078 227.206 346.629 224.531 346.629 221.615C346.629 218.798 347.092 216.173 348.016 213.742C348.937 211.31 350.25 209.209 351.953 207.434C353.653 205.659 355.682 204.262 358.041 203.242C360.398 202.221 363.01 201.71 365.878 201.71C369.088 201.71 371.881 202.33 374.265 203.57C376.645 204.809 378.602 206.474 380.133 208.565C381.665 210.654 382.77 213.037 383.452 215.71C384.132 218.383 384.374 221.178 384.181 224.094H356.984C357.129 227.449 357.98 229.881 359.536 231.386" fill="#323232"/>
</svg>
