<svg width="1062" height="722" viewBox="0 0 1062 722" fill="none" xmlns="http://www.w3.org/2000/svg">
<path d="M0 521.7H57.6V672.3H76.7V521.7H134.5V503.9H0V521.7Z" fill="#141414"/>
<path d="M401.8 550.7C384.1 550.7 371.2 557.9 363.2 572C357 557.8 345.3 550.7 328.5 550.7C314.9 550.7 304.1 555.5 297 564.8V552.7H279L279.2 672.4H297.7V614.8C297.7 582.9 307 567.3 326.1 567.3C343 567.3 351.6 579.4 351.6 603.3V672.4H370.1V614.8C370.1 582.9 379.7 567.3 399.4 567.3C424.2 567.3 424.2 591.9 424.2 602.4V672.4H442.7V597.9C442.7 567 428.6 550.7 401.8 550.7Z" fill="#141414"/>
<path d="M188.7 550.7C151.9 550.7 135.4 582 135.4 613.1C135.4 650.3 157.1 674.3 190.6 674.3C209.9 674.3 223.3 668.5 236.9 654.2L237.6 653.4L224.6 642.1L223.9 642.8C214.2 653.1 204.6 657.3 190.7 657.3C168.3 657.3 154.6 642.6 153.8 618H239.8L239.9 617.2C240.3 614.5 240.6 610.5 240.6 606.8C240.6 592.1 236.3 578.6 228.4 568.7C219.3 556.9 205.5 550.7 188.7 550.7ZM188.7 566.5C208.5 566.5 221.5 579 222.8 599.2C222.8 600.4 222.9 601.4 222.9 602H153.9C155.8 580.8 169.7 566.5 188.7 566.5Z" fill="#141414"/>
<path d="M1035.1 656V504H1017.7V657.4C1017.7 666.1 1024.9 673.1 1033.7 673.1H1061.3V656.1H1035.1V656Z" fill="#141414"/>
<path d="M924.1 550.7C903.7 550.7 888.2 558.5 875.3 575.2L874.7 576L888.2 587.3L888.8 586.4C898.3 573.3 909.4 567.2 923.8 567.2C943.1 567.2 953.4 577.8 953.4 598V602.5H930.3C907.4 602.5 894.3 604.6 885.1 609.8C875.9 615.5 871 625 871 637.2C871 660.4 886.6 674.3 912.6 674.3C930.5 674.3 944.4 668.2 954 656L954.9 672.3H971.9V598C971.9 583.3 967.6 571.3 959.3 563.1C951.1 555 938.9 550.7 924.1 550.7ZM953.4 617.9V618.6C953.4 643.3 939.6 658.7 917.4 658.7C900.2 658.7 889.5 650.8 889.5 638.2C889.5 631.7 891.5 626.8 895.6 623.7C901 619.4 910.2 617.9 931.8 617.9H953.4Z" fill="#141414"/>
<path d="M544.6 550.5C528.9 550.5 515.8 556.1 506.7 566.6V552.6H488.2V721.1H506.7V658.4C515.9 668.8 528.9 674.3 544.6 674.3C577.5 674.3 597.9 650.6 597.9 612.4C597.9 594 593 578.4 583.8 567.5C574.4 556.4 560.9 550.5 544.6 550.5ZM579.5 612.4C579.5 625.7 576.2 637 570 645C563.5 653.3 553.9 657.7 542.3 657.7C519.5 657.7 505.3 640.3 505.3 612.4C505.3 584.5 519.5 567.1 542.3 567.1C565.2 567 579.5 584.4 579.5 612.4Z" fill="#141414"/>
<path d="M684.6 550.7C668.2 550.7 653.4 556.9 643.1 568.3C632.9 579.5 627.3 595.1 627.3 612.4C627.3 629.7 632.9 645.4 643.1 656.6C653.5 668 668.2 674.3 684.6 674.3C718 674.3 742.2 648.3 742.2 612.4C742.2 595.2 736.5 579.5 726.2 568.3C715.7 556.9 700.9 550.7 684.6 550.7ZM723.7 612.4C723.7 625.2 720 636.7 713.4 644.8C706.4 653.3 696.4 657.8 684.6 657.8C661 657.8 645.7 640 645.7 612.5C645.7 585.1 661 567.4 684.6 567.4C708.3 567.3 723.7 585 723.7 612.4Z" fill="#141414"/>
<path d="M833.1 550.7C822.6 550.7 808.5 553.7 799.2 567.7V552.6H780.7V672.3H799.2V605.6C799.2 582.1 810.9 567.4 829.7 567.4C834.5 567.4 839.3 568.5 844.8 570.9L845.6 571.2L854.7 556.2L853.8 555.7C847.7 552.4 840.9 550.7 833.1 550.7Z" fill="#141414"/>
<path d="M609.2 126.3C600 57.5 576.8 0 541 0C505.3 0 482 57.5 472.8 126.3C404 135.5 346.5 158.7 346.5 194.5C346.5 230.2 404 253.5 472.8 262.7C482 331.5 505.2 389 541 389C576.7 389 600 331.5 609.2 262.7C678 253.5 735.5 230.3 735.5 194.5C735.5 158.7 678 135.4 609.2 126.3ZM470.6 242.5C404.7 233 366.2 211.2 366.2 194.4C366.2 177.6 404.6 155.8 470.6 146.3C469.1 162.2 468.4 178.4 468.4 194.4C468.4 210.4 469.1 226.7 470.6 242.5ZM541 19.6C557.8 19.6 579.6 58 589.1 124C573.2 122.5 557 121.8 541 121.8C525 121.8 508.8 122.6 492.9 124C502.4 58.1 524.2 19.6 541 19.6ZM611.4 242.5C608.2 243 594.8 244.5 591.5 244.9C591.2 248.3 589.6 261.6 589.1 264.8C579.6 330.7 557.8 369.2 541 369.2C524.2 369.2 502.4 330.8 492.9 264.8C492.4 261.6 490.9 248.2 490.5 244.9C489 229.3 488 212.5 488 194.4C488 176.3 488.9 159.6 490.5 143.9C506.1 142.4 522.9 141.4 541 141.4C559.1 141.4 575.8 142.3 591.5 143.9C594.9 144.2 608.2 145.8 611.4 146.3C677.3 155.8 715.8 177.6 715.8 194.4C715.8 211.2 677.3 233 611.4 242.5Z" fill="#141414"/>
</svg>
